<svg width="400" height="140" viewBox="0 0 400 140" fill="none" xmlns="http://www.w3.org/2000/svg">
<path d="M0 10C0 4.47716 4.47715 0 10 0H390C395.523 0 400 4.47715 400 10V130C400 135.523 395.523 140 390 140H9.99999C4.47714 140 0 135.523 0 130V10Z" fill="#F7F7F7"/>
<rect x="146" y="16" width="108" height="108" rx="54" fill="#F5F5F5"/>
<rect x="164.517" y="43.2388" width="64.2955" height="50.3573" rx="6.86598" fill="#EBEBEB" stroke="#A4A4A4" stroke-miterlimit="10"/>
<rect x="171.027" y="37.1621" width="64.2955" height="50.3573" rx="6.86598" fill="white" stroke="#A4A4A4" stroke-miterlimit="10"/>
<circle cx="185.66" cy="51.1428" r="7.90402" fill="white" stroke="#A4A4A4" stroke-miterlimit="10"/>
<path fill-rule="evenodd" clip-rule="evenodd" d="M180.583 57.2008C180.806 54.7936 182.701 52.8711 185.096 52.6078C183.82 52.3471 182.86 51.2183 182.86 49.8652C182.86 48.3192 184.113 47.0659 185.659 47.0659C187.205 47.0659 188.459 48.3192 188.459 49.8652C188.459 51.2182 187.499 52.347 186.223 52.6077C188.619 52.871 190.515 54.7943 190.736 57.2024C189.363 58.3537 187.593 59.047 185.661 59.047C183.728 59.047 181.957 58.3531 180.583 57.2008Z" fill="#A4A4A4"/>
<path d="M185.096 52.6078L185.151 53.1048C185.396 53.0779 185.584 52.8767 185.596 52.6308C185.607 52.3848 185.438 52.1672 185.196 52.1179L185.096 52.6078ZM180.583 57.2008L180.086 57.1549C180.071 57.3182 180.137 57.4785 180.262 57.5839L180.583 57.2008ZM186.223 52.6077L186.123 52.1179C185.881 52.1672 185.712 52.3848 185.723 52.6308C185.735 52.8767 185.923 53.0778 186.168 53.1047L186.223 52.6077ZM190.736 57.2024L191.057 57.5856C191.183 57.4802 191.249 57.3199 191.234 57.1567L190.736 57.2024ZM185.096 52.6078L185.042 52.1108C182.411 52.4 180.329 54.5106 180.086 57.1549L180.583 57.2008L181.081 57.2468C181.282 55.0765 182.992 53.3422 185.151 53.1048L185.096 52.6078ZM182.86 49.8652H182.36C182.36 51.4605 183.492 52.7904 184.996 53.0977L185.096 52.6078L185.196 52.1179C184.148 51.9038 183.36 50.976 183.36 49.8652H182.86ZM185.659 47.0659V46.5659C183.837 46.5659 182.36 48.043 182.36 49.8652H182.86H183.36C183.36 48.5953 184.39 47.5659 185.659 47.5659V47.0659ZM188.459 49.8652H188.959C188.959 48.043 187.482 46.5659 185.659 46.5659V47.0659V47.5659C186.929 47.5659 187.959 48.5953 187.959 49.8652H188.459ZM186.223 52.6077L186.323 53.0976C187.827 52.7903 188.959 51.4605 188.959 49.8652H188.459H187.959C187.959 50.9759 187.171 51.9037 186.123 52.1179L186.223 52.6077ZM190.736 57.2024L191.234 57.1567C190.991 54.5114 188.909 52.3999 186.277 52.1107L186.223 52.6077L186.168 53.1047C188.328 53.3421 190.039 55.0771 190.238 57.2482L190.736 57.2024ZM190.736 57.2024L190.415 56.8193C189.128 57.8979 187.471 58.547 185.661 58.547V59.047V59.547C187.715 59.547 189.598 58.8095 191.057 57.5856L190.736 57.2024ZM185.661 59.047V58.547C183.85 58.547 182.192 57.8973 180.905 56.8178L180.583 57.2008L180.262 57.5839C181.722 58.8089 183.606 59.547 185.661 59.547V59.047Z" fill="#A4A4A4"/>
<rect x="178.642" y="77.2969" width="49.952" height="4.73025" rx="2.36512" fill="#A4A4A4"/>
<path d="M190.667 78.7186V81.4647H183.507V78.7186C183.507 77.7314 183.906 76.8357 184.553 76.1884C185.201 75.541 186.103 75.1357 187.09 75.1357C189.065 75.1357 190.667 76.7441 190.667 78.7186Z" fill="#D1D1D1" stroke="#A4A4A4" stroke-miterlimit="10"/>
<path d="M230.785 105.963V107.761C230.785 108.951 230.301 110.023 229.529 110.801C228.751 111.579 227.672 112.056 226.489 112.056H194.962C197.342 112.056 199.264 110.134 199.264 107.761V105.963H230.785Z" fill="#D1D1D1" stroke="#A4A4A4" stroke-miterlimit="10"/>
<path d="M222.187 78.7186V105.963H199.264V107.761C199.264 110.134 197.342 112.057 194.962 112.057C193.779 112.057 192.7 111.579 191.922 110.801C191.15 110.023 190.666 108.951 190.666 107.761V78.7186C190.666 76.7441 189.065 75.1357 187.09 75.1357H218.61C219.598 75.1357 220.493 75.5411 221.141 76.1884C221.788 76.8357 222.187 77.7314 222.187 78.7186Z" fill="white" stroke="#A4A4A4" stroke-miterlimit="10"/>
<rect x="199.92" y="49.1094" width="28.6742" height="4.06622" rx="2.03311" fill="#EBEBEB" stroke="#A4A4A4" stroke-miterlimit="10"/>
<rect x="208.289" y="49.1094" width="11.9364" height="4.06622" rx="2.03311" fill="white" stroke="#A4A4A4" stroke-miterlimit="10"/>
<path d="M182.978 62.5263C183.144 62.0134 183.87 62.0134 184.036 62.5263L184.592 64.2358C184.666 64.4651 184.88 64.6204 185.121 64.6204H186.919C187.458 64.6204 187.682 65.3105 187.246 65.6275L185.792 66.684C185.597 66.8258 185.515 67.0771 185.59 67.3065L186.145 69.016C186.312 69.5288 185.725 69.9554 185.288 69.6384L183.834 68.5818C183.639 68.4401 183.375 68.4401 183.18 68.5818L181.726 69.6384C181.289 69.9554 180.702 69.5288 180.869 69.016L181.424 67.3065C181.499 67.0771 181.417 66.8258 181.222 66.684L179.768 65.6275C179.332 65.3105 179.556 64.6204 180.095 64.6204H181.893C182.134 64.6204 182.348 64.4651 182.422 64.2358L182.978 62.5263Z" fill="#D1D1D1" stroke="#A4A4A4" stroke-miterlimit="10"/>
<path d="M195.526 62.5263C195.692 62.0134 196.418 62.0134 196.585 62.5263L197.14 64.2358C197.215 64.4651 197.428 64.6204 197.67 64.6204H199.467C200.006 64.6204 200.231 65.3105 199.794 65.6275L198.34 66.684C198.145 66.8258 198.063 67.0771 198.138 67.3065L198.693 69.016C198.86 69.5288 198.273 69.9554 197.837 69.6384L196.383 68.5818C196.187 68.4401 195.923 68.4401 195.728 68.5818L194.274 69.6384C193.838 69.9554 193.251 69.5288 193.417 69.016L193.973 67.3065C194.047 67.0771 193.966 66.8258 193.77 66.684L192.316 65.6275C191.88 65.3105 192.104 64.6204 192.643 64.6204H194.441C194.682 64.6204 194.896 64.4651 194.97 64.2358L195.526 62.5263Z" fill="#D1D1D1" stroke="#A4A4A4" stroke-miterlimit="10"/>
<path d="M208.477 62.5263C208.644 62.0134 209.37 62.0134 209.536 62.5263L210.092 64.2358C210.166 64.4651 210.38 64.6204 210.621 64.6204H212.419C212.958 64.6204 213.182 65.3105 212.746 65.6275L211.292 66.684C211.097 66.8258 211.015 67.0771 211.09 67.3065L211.645 69.016C211.812 69.5288 211.225 69.9554 210.788 69.6384L209.334 68.5818C209.139 68.4401 208.875 68.4401 208.68 68.5818L207.226 69.6384C206.789 69.9554 206.202 69.5288 206.369 69.016L206.924 67.3065C206.999 67.0771 206.917 66.8258 206.722 66.684L205.268 65.6275C204.832 65.3105 205.056 64.6204 205.595 64.6204H207.393C207.634 64.6204 207.848 64.4651 207.922 64.2358L208.477 62.5263Z" fill="white" stroke="#A4A4A4" stroke-miterlimit="10"/>
<path d="M251.071 92.416C251.071 92.416 246.693 92.4309 246.693 96.7944C246.693 92.4309 242.315 92.416 242.315 92.416C242.315 92.416 246.693 92.4011 246.693 88.0376C246.693 92.4011 251.071 92.416 251.071 92.416Z" fill="white" stroke="#A4A4A4" stroke-linecap="round" stroke-linejoin="round"/>
<path d="M160.321 57.4346C160.321 57.4346 155.943 57.4494 155.943 61.8129C155.943 57.4494 151.564 57.4346 151.564 57.4346C151.564 57.4346 155.943 57.4196 155.943 53.0562C155.943 57.4196 160.321 57.4346 160.321 57.4346Z" fill="white" stroke="#A4A4A4" stroke-linecap="round" stroke-linejoin="round"/>
<path d="M193.564 89.2889H196.732C197.019 89.2889 197.282 89.1276 197.412 88.8716L201.023 81.7662C201.307 81.2078 202.106 81.2104 202.386 81.7706L203.97 84.9402C204.1 85.1987 204.364 85.3619 204.653 85.3619H207.952C208.146 85.3619 208.332 85.4357 208.474 85.5683L209.987 86.9871C210.309 87.2885 210.818 87.2557 211.098 86.9155L214.424 82.8765C214.569 82.7005 214.785 82.5986 215.013 82.5986H218.871" stroke="#A4A4A4" stroke-miterlimit="10" stroke-linecap="round"/>
<rect x="193.564" y="92.0547" width="25.3065" height="2.11019" rx="0.762887" fill="#EBEBEB"/>
<rect x="193.564" y="96.9312" width="10.9449" height="2.11019" rx="0.762887" fill="#EBEBEB"/>
</svg>
