<svg width="108" height="108" viewBox="0 0 108 108" fill="none" xmlns="http://www.w3.org/2000/svg">
<rect width="108" height="108" rx="54" fill="#F5F5F5"/>
<path d="M63.5794 84.2846L74.7379 74.7261C77.211 72.6076 77.4987 68.8844 75.3801 66.4112C73.7919 64.5572 71.3058 63.9315 69.119 64.6299L68.8385 64.7271L55.2399 69.3207C58.4836 68.2895 62.1736 69.2136 64.5308 71.9654C67.6689 75.6288 67.2427 81.1466 63.5794 84.2846Z" fill="#D1D1D1" stroke="#A4A4A4" stroke-linecap="round" stroke-linejoin="round"/>
<path d="M55.2398 69.3207L68.8385 64.7271L69.119 64.6299C71.3058 63.9315 73.7919 64.5572 75.3801 66.4112L45.4199 31.4359L23.1476 50.5146L51.2603 83.3331C54.3984 86.9965 59.916 87.4227 63.5794 84.2846C67.2426 81.1466 67.6689 75.6288 64.5308 71.9655C62.1736 69.2137 58.4835 68.2895 55.2398 69.3207Z" fill="white" stroke="#A4A4A4" stroke-linecap="round" stroke-linejoin="round"/>
<path d="M55.2397 69.3206L55.0815 69.3726" stroke="#A4A4A4" stroke-linecap="round" stroke-linejoin="round"/>
<path d="M51.1819 67.832C55.1195 67.832 58.3116 64.6399 58.3116 60.7022C58.3116 56.7646 55.1195 53.5725 51.1819 53.5725C47.2442 53.5725 44.0521 56.7646 44.0521 60.7022C44.0521 64.6399 47.2442 67.832 51.1819 67.832Z" fill="#A4A4A4" stroke="#A4A4A4" stroke-linecap="round" stroke-linejoin="round"/>
<path d="M26.2709 54.1607C28.2865 52.434 28.5203 49.407 26.7936 47.3913L23.1476 50.5146L26.2709 54.1607Z" fill="#A4A4A4" stroke="#A4A4A4" stroke-linecap="round" stroke-linejoin="round"/>
<path d="M48.5432 35.082L45.4198 31.4359L41.7737 34.5592C43.5004 36.5749 46.5274 36.8087 48.5432 35.082Z" fill="#A4A4A4" stroke="#A4A4A4" stroke-linecap="round" stroke-linejoin="round"/>
<path d="M71.4334 71.5438L79.4556 59.2343C81.2336 56.5061 80.4632 52.8522 77.7349 51.0741C75.6897 49.7412 73.1279 49.8396 71.2256 51.1244L70.9836 51.2966L59.2242 59.527C62.0474 57.6257 65.8484 57.4755 68.8841 59.4538C72.9253 62.0875 74.067 67.5026 71.4334 71.5438Z" fill="#EBEBEB" stroke="#A4A4A4" stroke-linecap="round" stroke-linejoin="round"/>
<path d="M59.2239 59.5269L70.9833 51.2964L71.2253 51.1243C73.1276 49.8394 75.6894 49.7411 77.7346 51.074L39.1519 25.9292L23.1396 50.4988L59.3432 74.093C63.3844 76.7267 68.7994 75.5848 71.4332 71.5436C74.0668 67.5025 72.925 62.0873 68.8838 59.4536C65.8482 57.4753 62.0471 57.6256 59.2239 59.5269Z" fill="white" stroke="#A4A4A4" stroke-linecap="round" stroke-linejoin="round"/>
<path d="M59.2239 59.527L59.0867 59.6214" stroke="#A4A4A4" stroke-linecap="round" stroke-linejoin="round"/>
<path d="M52.9074 60.3802C57.3168 60.3802 60.8913 56.8057 60.8913 52.3963C60.8913 47.9869 57.3168 44.4124 52.9074 44.4124C48.498 44.4124 44.9235 47.9869 44.9235 52.3963C44.9235 56.8057 48.498 60.3802 52.9074 60.3802Z" fill="#D1D1D1" stroke="#A4A4A4" stroke-linecap="round" stroke-linejoin="round"/>
<path d="M27.1618 53.1203C28.6109 50.8967 27.9845 47.9259 25.7609 46.4768L23.1396 50.499L27.1618 53.1203Z" fill="#A4A4A4" stroke="#A4A4A4" stroke-linecap="round" stroke-linejoin="round"/>
<path d="M43.174 28.5505L39.1518 25.9292L36.5305 29.9515C38.7541 31.4006 41.7249 30.7742 43.174 28.5505Z" fill="#A4A4A4" stroke="#A4A4A4" stroke-linecap="round" stroke-linejoin="round"/>
<path d="M48.5627 50.2267L50.7067 52.3681L48.5627 50.2267Z" fill="#D1D1D1"/>
<path d="M48.5627 50.2267L50.7067 52.3681" stroke="#A4A4A4" stroke-linecap="round" stroke-linejoin="round"/>
<path d="M50.7056 50.2254L48.5641 52.3693L50.7056 50.2254Z" fill="#D1D1D1"/>
<path d="M50.7056 50.2254L48.5641 52.3693" stroke="#A4A4A4" stroke-linecap="round" stroke-linejoin="round"/>
<path d="M55.1079 50.2228L57.2518 52.3642L55.1079 50.2228Z" fill="#D1D1D1"/>
<path d="M55.1079 50.2228L57.2518 52.3642" stroke="#A4A4A4" stroke-linecap="round" stroke-linejoin="round"/>
<path d="M57.2508 50.2216L55.1094 52.3655L57.2508 50.2216Z" fill="#D1D1D1"/>
<path d="M57.2508 50.2216L55.1094 52.3655" stroke="#A4A4A4" stroke-linecap="round" stroke-linejoin="round"/>
<path d="M49.9021 54.5712L55.4577 54.568L49.9021 54.5712Z" fill="#D1D1D1"/>
<path d="M49.9021 54.5712L55.4577 54.568" stroke="#A4A4A4" stroke-linecap="round" stroke-linejoin="round"/>
<path d="M26.2736 82.3813C29.5275 82.3813 32.1653 79.7435 32.1653 76.4896C32.1653 73.2357 29.5275 70.598 26.2736 70.598C23.0197 70.598 20.382 73.2357 20.382 76.4896C20.382 79.7435 23.0197 82.3813 26.2736 82.3813Z" fill="#EBEBEB" stroke="#A4A4A4" stroke-linecap="round" stroke-linejoin="round"/>
<path d="M25.541 42.8324C30.2087 42.8324 33.9926 39.0485 33.9926 34.3808C33.9926 29.7131 30.2087 25.9292 25.541 25.9292C20.8733 25.9292 17.0894 29.7131 17.0894 34.3808C17.0894 39.0485 20.8733 42.8324 25.541 42.8324Z" fill="#EBEBEB" stroke="#A4A4A4" stroke-linecap="round" stroke-linejoin="round"/>
<path d="M87.5682 80.3281C91.102 80.3281 93.9668 77.4634 93.9668 73.9295C93.9668 70.3957 91.102 67.531 87.5682 67.531C84.0344 67.531 81.1697 70.3957 81.1697 73.9295C81.1697 77.4634 84.0344 80.3281 87.5682 80.3281Z" fill="#EBEBEB" stroke="#A4A4A4" stroke-linecap="round" stroke-linejoin="round"/>
<path d="M87.4495 77.4512C87.2516 77.4262 87.0672 77.3327 86.9241 77.1849C86.767 77.0225 86.683 76.8303 86.6714 76.6064C86.6491 76.175 86.9373 75.7952 87.3668 75.6899C87.4242 75.6759 87.4547 75.6731 87.5574 75.6727C87.7219 75.6721 87.8317 75.6958 87.9558 75.7583C88.2605 75.9117 88.4444 76.194 88.4575 76.5281C88.4704 76.8607 88.3069 77.1603 88.0167 77.3355C87.8548 77.4333 87.6456 77.4759 87.4495 77.4512ZM86.5219 75.4454C86.4824 75.4257 86.1342 75.0776 86.1153 75.0388C86.1028 75.013 86.1012 74.9976 86.1033 74.9201C86.1053 74.8466 86.1084 74.8259 86.1209 74.8018C86.1385 74.7679 86.2764 74.6328 86.3748 74.5529C86.5913 74.3773 86.8758 74.239 87.1475 74.1774C87.2975 74.1433 87.3865 74.1342 87.5682 74.1342C87.7499 74.1342 87.8389 74.1433 87.9889 74.1774C88.2605 74.239 88.5449 74.3772 88.7616 74.5529C88.8728 74.6431 89.0032 74.773 89.017 74.8074C89.0322 74.8455 89.039 74.9916 89.0271 75.0283C89.0157 75.0637 88.6576 75.4248 88.6132 75.4457C88.5731 75.4645 88.5035 75.465 88.4631 75.4468C88.4459 75.439 88.4149 75.4121 88.3876 75.3813C88.3241 75.3097 88.2247 75.2283 88.1344 75.174C87.7323 74.932 87.2228 74.9721 86.8608 75.2742C86.8246 75.3043 86.7742 75.3525 86.7488 75.3813C86.7214 75.4121 86.6904 75.439 86.6732 75.4468C86.6331 75.465 86.56 75.4643 86.5219 75.4454ZM85.4756 74.4042C85.4379 74.3851 85.0682 74.0117 85.0588 73.9833C85.0545 73.9702 85.0522 73.9225 85.0535 73.8742C85.0553 73.8042 85.0586 73.7829 85.0708 73.7594C85.0998 73.7036 85.3645 73.4582 85.5374 73.3267C85.8132 73.1169 86.1862 72.9225 86.5201 72.8146C87.2711 72.5718 88.0902 72.5977 88.8159 72.8873C89.0851 72.9947 89.3803 73.1603 89.5991 73.3267C89.772 73.4582 90.0366 73.7036 90.0656 73.7594C90.0778 73.7829 90.081 73.8042 90.0829 73.8742C90.0843 73.9227 90.0818 73.9702 90.0776 73.9833C90.0675 74.014 89.6902 74.3925 89.6551 74.4071C89.6224 74.4208 89.5531 74.4203 89.5179 74.4062C89.499 74.3987 89.4659 74.3693 89.4169 74.3168C89.1594 74.0403 88.7859 73.8037 88.4005 73.6728C88.1202 73.5776 87.8729 73.5374 87.5682 73.5374C87.2635 73.5374 87.0162 73.5776 86.7359 73.6728C86.3505 73.8037 85.9771 74.0403 85.7195 74.3168C85.6705 74.3693 85.6374 74.3987 85.6185 74.4062C85.5805 74.4214 85.5076 74.4203 85.4756 74.4042ZM84.4221 73.3463C84.3804 73.3273 84.0278 72.9703 84.0167 72.9358C84.0117 72.9204 84.0094 72.8758 84.0108 72.8243C84.0126 72.7544 84.0159 72.733 84.0281 72.7096C84.0502 72.6671 84.2778 72.4482 84.4473 72.3063C85.1445 71.7228 85.9798 71.349 86.8707 71.2217C87.1435 71.1827 87.2183 71.178 87.5682 71.178C87.9182 71.178 87.9929 71.1827 88.2658 71.2217C89.1566 71.349 89.9919 71.7228 90.6892 72.3063C90.8587 72.4481 91.0862 72.6671 91.1083 72.7096C91.1205 72.733 91.1238 72.7543 91.1257 72.8243C91.127 72.8758 91.1246 72.9204 91.1198 72.9357C91.1079 72.9725 90.7555 73.3277 90.712 73.3468C90.6702 73.365 90.6021 73.3646 90.5609 73.3459C90.5409 73.3368 90.4877 73.2907 90.4134 73.2181C90.0977 72.9093 89.7864 72.6855 89.402 72.4908C88.9263 72.2498 88.4552 72.1169 87.8918 72.0649C87.6815 72.0455 87.3039 72.0544 87.0612 72.0846C86.5978 72.1422 86.1547 72.2778 85.7345 72.4907C85.35 72.6855 85.0388 72.9093 84.723 73.2181C84.6487 73.2907 84.5955 73.3368 84.5756 73.3459C84.535 73.3642 84.4621 73.3644 84.4221 73.3463Z" fill="#A4A4A4"/>
<path d="M25.5407 29.8329C23.0999 29.8329 21.1191 31.8703 21.1191 34.3808C21.1191 36.8913 23.0999 38.9287 25.5407 38.9287C27.9815 38.9287 29.9623 36.8913 29.9623 34.3808C29.9623 31.8703 27.9815 29.8329 25.5407 29.8329ZM27.3361 36.5245C27.2612 36.5245 27.2148 36.5007 27.1453 36.4585C26.0328 35.769 24.7384 35.7397 23.4601 36.0092C23.3905 36.0276 23.2996 36.0569 23.2479 36.0569C23.075 36.0569 22.9662 35.9157 22.9662 35.7672C22.9662 35.5783 23.075 35.4884 23.2087 35.4591C24.6689 35.1272 26.1611 35.1565 27.4341 35.9396C27.5429 36.0111 27.6071 36.0753 27.6071 36.2421C27.6071 36.409 27.4805 36.5245 27.3361 36.5245ZM27.8157 35.3216C27.7229 35.3216 27.6605 35.2794 27.5964 35.2445C26.4821 34.566 24.8204 34.2928 23.3424 34.7054C23.2568 34.7292 23.2105 34.7531 23.1302 34.7531C22.9395 34.7531 22.7844 34.5935 22.7844 34.3973C22.7844 34.2011 22.8771 34.0709 23.0607 34.0177C23.5563 33.8747 24.0627 33.7683 24.8044 33.7683C25.9615 33.7683 27.0793 34.0636 27.9601 34.6027C28.1045 34.6907 28.1615 34.8044 28.1615 34.964C28.1598 35.162 28.01 35.3216 27.8157 35.3216ZM28.3684 33.9242C28.2756 33.9242 28.2186 33.9003 28.1384 33.8527C26.8689 33.0733 24.5993 32.8862 23.1302 33.308C23.0661 33.3264 22.9858 33.3557 22.9002 33.3557C22.6649 33.3557 22.4848 33.1668 22.4848 32.9229C22.4848 32.679 22.6346 32.5323 22.7951 32.4846C23.4226 32.2957 24.1251 32.2059 24.8899 32.2059C26.1915 32.2059 27.5554 32.4846 28.552 33.0825C28.6911 33.165 28.782 33.2787 28.782 33.4969C28.782 33.7463 28.5859 33.9242 28.3684 33.9242Z" fill="#A4A4A4"/>
<path d="M79.117 40.5543C85 40.5543 89.7692 35.7851 89.7692 29.9021C89.7692 24.019 85 19.2498 79.117 19.2498C73.2339 19.2498 68.4647 24.019 68.4647 29.9021C68.4647 35.7851 73.2339 40.5543 79.117 40.5543Z" fill="#EBEBEB" stroke="#A4A4A4" stroke-linecap="round" stroke-linejoin="round"/>
<path d="M84.853 27.0188C84.7131 26.5016 84.3096 26.0966 83.7924 25.9583C83.0977 25.6901 76.3687 25.5587 74.4167 25.966C73.8995 26.1059 73.4945 26.5093 73.3562 27.0265C73.0427 28.4021 73.0188 31.3762 73.3639 32.7826C73.5038 33.2998 73.9072 33.7048 74.4244 33.8431C75.8 34.1598 82.34 34.2043 83.8001 33.8431C84.3173 33.7033 84.7223 33.2998 84.8607 32.7826C85.195 31.284 85.2188 28.4944 84.853 27.0188Z" fill="#A4A4A4"/>
<path d="M81.0875 29.9007L77.952 28.1024V31.699L81.0875 29.9007Z" fill="white"/>
<path d="M17.1704 20.8584C17.1704 20.8584 12.7867 19.5525 11.4703 23.9169C12.7866 19.5525 8.41187 18.2168 8.41187 18.2168C8.41187 18.2168 12.7957 19.5227 14.112 15.1583C12.7957 19.5227 17.1704 20.8584 17.1704 20.8584Z" fill="white" stroke="#A4A4A4" stroke-linecap="round" stroke-linejoin="round"/>
<path d="M81.4959 96.1583C81.4959 96.1583 77.752 100.55 82.1164 104.296C77.752 100.55 73.9784 104.917 73.9784 104.917C73.9784 104.917 77.7222 100.525 73.3578 96.7788C77.7222 100.525 81.4959 96.1583 81.4959 96.1583Z" fill="white" stroke="#A4A4A4" stroke-linecap="round" stroke-linejoin="round"/>
</svg>
